<?xml version="1.0" encoding="UTF-8" standalone="no"?><svg xmlns="http://www.w3.org/2000/svg" xmlns:xlink="http://www.w3.org/1999/xlink" contentScriptType="application/ecmascript" contentStyleType="text/css" height="341px" preserveAspectRatio="none" style="width:195px;height:341px;" version="1.1" viewBox="0 0 195 341" width="195px" zoomAndPan="magnify"><defs><filter height="300%" id="fiebv9jfyehzw" width="300%" x="-1" y="-1"><feGaussianBlur result="blurOut" stdDeviation="2.0"/><feColorMatrix in="blurOut" result="blurOut2" type="matrix" values="0 0 0 0 0 0 0 0 0 0 0 0 0 0 0 0 0 0 .4 0"/><feOffset dx="4.0" dy="4.0" in="blurOut2" result="blurOut3"/><feBlend in="SourceGraphic" in2="blurOut3" mode="normal"/></filter></defs><g><rect fill="#FEFECE" filter="url(#fiebv9jfyehzw)" height="35.0938" rx="12.5" ry="12.5" style="stroke: #A80036; stroke-width: 1.5;" width="55" x="10" y="157.7344"/><text fill="#000000" font-family="sans-serif" font-size="12" lengthAdjust="spacingAndGlyphs" textLength="35" x="20" y="180.1914">streng</text><rect fill="#FEFECE" filter="url(#fiebv9jfyehzw)" height="35.0938" rx="12.5" ry="12.5" style="stroke: #A80036; stroke-width: 1.5;" width="54" x="115" y="20"/><text fill="#000000" font-family="sans-serif" font-size="12" lengthAdjust="spacingAndGlyphs" textLength="34" x="125" y="42.457">codes</text><path d="M65,175.2813 L75,175.2813 C90,175.2813 90,37.5469 105,37.5469 L115,37.5469 " fill="none" style="stroke: #A80036; stroke-width: 1.0;"/><rect fill="#FEFECE" filter="url(#fiebv9jfyehzw)" height="35.0938" rx="12.5" ry="12.5" style="stroke: #A80036; stroke-width: 1.5;" width="69" x="115" y="75.0938"/><text fill="#000000" font-family="sans-serif" font-size="12" lengthAdjust="spacingAndGlyphs" textLength="49" x="125" y="97.5508">common</text><path d="M65,175.2813 L75,175.2813 C90,175.2813 90,92.6406 105,92.6406 L115,92.6406 " fill="none" style="stroke: #A80036; stroke-width: 1.0;"/><rect fill="#FEFECE" filter="url(#fiebv9jfyehzw)" height="35.0938" rx="12.5" ry="12.5" style="stroke: #A80036; stroke-width: 1.5;" width="41" x="115" y="130.1875"/><text fill="#000000" font-family="sans-serif" font-size="12" lengthAdjust="spacingAndGlyphs" textLength="21" x="125" y="152.6445">phd</text><path d="M65,175.2813 L75,175.2813 C90,175.2813 90,147.7344 105,147.7344 L115,147.7344 " fill="none" style="stroke: #A80036; stroke-width: 1.0;"/><rect fill="#FEFECE" filter="url(#fiebv9jfyehzw)" height="35.0938" rx="12.5" ry="12.5" style="stroke: #A80036; stroke-width: 1.5;" width="41" x="115" y="185.2813"/><text fill="#000000" font-family="sans-serif" font-size="12" lengthAdjust="spacingAndGlyphs" textLength="21" x="125" y="207.7383">ppp</text><path d="M65,175.2813 L75,175.2813 C90,175.2813 90,202.8281 105,202.8281 L115,202.8281 " fill="none" style="stroke: #A80036; stroke-width: 1.0;"/><rect fill="#FEFECE" filter="url(#fiebv9jfyehzw)" height="35.0938" rx="12.5" ry="12.5" style="stroke: #A80036; stroke-width: 1.5;" width="47" x="115" y="240.375"/><text fill="#000000" font-family="sans-serif" font-size="12" lengthAdjust="spacingAndGlyphs" textLength="27" x="125" y="262.832">tools</text><path d="M65,175.2813 L75,175.2813 C90,175.2813 90,257.9219 105,257.9219 L115,257.9219 " fill="none" style="stroke: #A80036; stroke-width: 1.0;"/><rect fill="#FEFECE" filter="url(#fiebv9jfyehzw)" height="35.0938" rx="12.5" ry="12.5" style="stroke: #A80036; stroke-width: 1.5;" width="50" x="115" y="295.4688"/><text fill="#000000" font-family="sans-serif" font-size="12" lengthAdjust="spacingAndGlyphs" textLength="30" x="125" y="317.9258">xwflib</text><path d="M65,175.2813 L75,175.2813 C90,175.2813 90,313.0156 105,313.0156 L115,313.0156 " fill="none" style="stroke: #A80036; stroke-width: 1.0;"/><!--
@startmindmap
* streng
** codes
** common
** phd
** ppp
** tools
** xwflib
@endmindmap

PlantUML version 1.2019.06(Fri May 24 20:10:25 EEST 2019)
(GPL source distribution)
Java Runtime: Java(TM) SE Runtime Environment
JVM: Java HotSpot(TM) 64-Bit Server VM
Java Version: 1.8.0_281-b09
Operating System: Windows 10
OS Version: 10.0
Default Encoding: Cp1253
Language: en
Country: US
--></g></svg>