<?xml version="1.0" encoding="UTF-8" standalone="no"?><svg xmlns="http://www.w3.org/2000/svg" xmlns:xlink="http://www.w3.org/1999/xlink" contentScriptType="application/ecmascript" contentStyleType="text/css" height="167px" preserveAspectRatio="none" style="width:353px;height:167px;" version="1.1" viewBox="0 0 353 167" width="353px" zoomAndPan="magnify"><defs><filter height="300%" id="fmkugxqu461vg" width="300%" x="-1" y="-1"><feGaussianBlur result="blurOut" stdDeviation="2.0"/><feColorMatrix in="blurOut" result="blurOut2" type="matrix" values="0 0 0 0 0 0 0 0 0 0 0 0 0 0 0 0 0 0 .4 0"/><feOffset dx="4.0" dy="4.0" in="blurOut2" result="blurOut3"/><feBlend in="SourceGraphic" in2="blurOut3" mode="normal"/></filter></defs><g><!--class OutputExtended--><rect fill="#FEFECE" filter="url(#fmkugxqu461vg)" height="148.8516" id="OutputExtended" style="stroke: #A80036; stroke-width: 1.5;" width="336" x="6" y="8"/><ellipse cx="126.25" cy="24" fill="#ADD1B2" rx="11" ry="11" style="stroke: #A80036; stroke-width: 1.0;"/><path d="M129.0156,19.875 Q129.1719,19.6563 129.3594,19.5469 Q129.5469,19.4375 129.7656,19.4375 Q130.1406,19.4375 130.375,19.6953 Q130.6094,19.9531 130.6094,20.5625 L130.6094,22.0156 Q130.6094,22.625 130.375,22.8906 Q130.1406,23.1563 129.7656,23.1563 Q129.4219,23.1563 129.2188,22.9531 Q129.0156,22.7656 128.9063,22.25 Q128.8594,21.8906 128.6719,21.7031 Q128.3438,21.3281 127.7344,21.1094 Q127.125,20.8906 126.5,20.8906 Q125.7344,20.8906 125.1016,21.2188 Q124.4688,21.5469 123.9766,22.2969 Q123.4844,23.0469 123.4844,24.0781 L123.4844,25.1719 Q123.4844,26.4063 124.375,27.2266 Q125.2656,28.0469 126.8594,28.0469 Q127.7969,28.0469 128.4531,27.7969 Q128.8438,27.6406 129.2656,27.2031 Q129.5313,26.9375 129.6797,26.8594 Q129.8281,26.7813 130.0313,26.7813 Q130.3594,26.7813 130.6172,27.0391 Q130.875,27.2969 130.875,27.6406 Q130.875,27.9844 130.5313,28.3906 Q130.0313,28.9688 129.2344,29.2969 Q128.1563,29.75 126.8594,29.75 Q125.3438,29.75 124.1406,29.125 Q123.1563,28.625 122.4688,27.5547 Q121.7813,26.4844 121.7813,25.2031 L121.7813,24.0469 Q121.7813,22.7188 122.3984,21.5703 Q123.0156,20.4219 124.1094,19.8047 Q125.2031,19.1875 126.4375,19.1875 Q127.1719,19.1875 127.8203,19.3516 Q128.4688,19.5156 129.0156,19.875 Z "/><text fill="#000000" font-family="sans-serif" font-size="12" lengthAdjust="spacingAndGlyphs" textLength="87" x="146.75" y="28.9102">OutputExtended</text><line style="stroke: #A80036; stroke-width: 1.5;" x1="7" x2="341" y1="40" y2="40"/><ellipse cx="17" cy="70.2539" fill="#84BE84" rx="3" ry="3" style="stroke: #038048; stroke-width: 1.0;"/><text fill="#000000" font-family="sans-serif" font-size="11" lengthAdjust="spacingAndGlyphs" textLength="306" x="26" y="73.2549">outputTables: Dict[str, OutputTable] = field(default_factory=dict)</text><ellipse cx="17" cy="84.0898" fill="#84BE84" rx="3" ry="3" style="stroke: #038048; stroke-width: 1.0;"/><text fill="#000000" font-family="sans-serif" font-size="11" lengthAdjust="spacingAndGlyphs" textLength="310" x="26" y="87.0908">outputStrings: Dict[str, OutputString] = field(default_factory=dict)</text><line style="stroke: #A80036; stroke-width: 1.0; stroke-dasharray: 1.0,2.0;" x1="7" x2="152" y1="54.918" y2="54.918"/><text fill="#000000" font-family="sans-serif" font-size="11" lengthAdjust="spacingAndGlyphs" textLength="44" x="152" y="58.9189">members</text><line style="stroke: #A80036; stroke-width: 1.0; stroke-dasharray: 1.0,2.0;" x1="196" x2="341" y1="54.918" y2="54.918"/><ellipse cx="17" cy="115.7617" fill="#84BE84" rx="3" ry="3" style="stroke: #038048; stroke-width: 1.0;"/><text fill="#000000" font-family="sans-serif" font-size="11" lengthAdjust="spacingAndGlyphs" textLength="115" x="26" y="118.7627">print_all_outputStrings()</text><line style="stroke: #A80036; stroke-width: 1.0; stroke-dasharray: 1.0,2.0;" x1="7" x2="149.5" y1="100.4258" y2="100.4258"/><text fill="#000000" font-family="sans-serif" font-size="11" lengthAdjust="spacingAndGlyphs" textLength="49" x="149.5" y="104.4268">properties</text><line style="stroke: #A80036; stroke-width: 1.0; stroke-dasharray: 1.0,2.0;" x1="198.5" x2="341" y1="100.4258" y2="100.4258"/><ellipse cx="17" cy="147.4336" fill="#84BE84" rx="3" ry="3" style="stroke: #038048; stroke-width: 1.0;"/><text fill="#000000" font-family="sans-serif" font-size="11" lengthAdjust="spacingAndGlyphs" textLength="147" x="26" y="150.4346">save_tofile_all_outputStrings()</text><line style="stroke: #A80036; stroke-width: 1.0; stroke-dasharray: 1.0,2.0;" x1="7" x2="153.5" y1="132.0977" y2="132.0977"/><text fill="#000000" font-family="sans-serif" font-size="11" lengthAdjust="spacingAndGlyphs" textLength="41" x="153.5" y="136.0986">methods</text><line style="stroke: #A80036; stroke-width: 1.0; stroke-dasharray: 1.0,2.0;" x1="194.5" x2="341" y1="132.0977" y2="132.0977"/><!--
@startuml
class OutputExtended {
.. members ..
+ outputTables: Dict[str, OutputTable] = field(default_factory=dict)
+ outputStrings: Dict[str, OutputString] = field(default_factory=dict)
.. properties ..
+ print_all_outputStrings()
.. methods ..
+ save_tofile_all_outputStrings()
}

@enduml

PlantUML version 1.2019.06(Fri May 24 20:10:25 EEST 2019)
(GPL source distribution)
Java Runtime: Java(TM) SE Runtime Environment
JVM: Java HotSpot(TM) 64-Bit Server VM
Java Version: 1.8.0_281-b09
Operating System: Windows 10
OS Version: 10.0
Default Encoding: Cp1253
Language: en
Country: US
--></g></svg>