<?xml version="1.0" encoding="UTF-8" standalone="no"?><svg xmlns="http://www.w3.org/2000/svg" xmlns:xlink="http://www.w3.org/1999/xlink" contentScriptType="application/ecmascript" contentStyleType="text/css" height="383px" preserveAspectRatio="none" style="width:362px;height:383px;" version="1.1" viewBox="0 0 362 383" width="362px" zoomAndPan="magnify"><defs><filter height="300%" id="fs3gp26v3dlbi" width="300%" x="-1" y="-1"><feGaussianBlur result="blurOut" stdDeviation="2.0"/><feColorMatrix in="blurOut" result="blurOut2" type="matrix" values="0 0 0 0 0 0 0 0 0 0 0 0 0 0 0 0 0 0 .4 0"/><feOffset dx="4.0" dy="4.0" in="blurOut2" result="blurOut3"/><feBlend in="SourceGraphic" in2="blurOut3" mode="normal"/></filter></defs><g><!--class Record--><rect fill="#FEFECE" filter="url(#fs3gp26v3dlbi)" height="364.3906" id="Record" style="stroke: #A80036; stroke-width: 1.5;" width="345" x="6" y="8"/><ellipse cx="154.25" cy="24" fill="#ADD1B2" rx="11" ry="11" style="stroke: #A80036; stroke-width: 1.0;"/><path d="M157.0156,19.875 Q157.1719,19.6563 157.3594,19.5469 Q157.5469,19.4375 157.7656,19.4375 Q158.1406,19.4375 158.375,19.6953 Q158.6094,19.9531 158.6094,20.5625 L158.6094,22.0156 Q158.6094,22.625 158.375,22.8906 Q158.1406,23.1563 157.7656,23.1563 Q157.4219,23.1563 157.2188,22.9531 Q157.0156,22.7656 156.9063,22.25 Q156.8594,21.8906 156.6719,21.7031 Q156.3438,21.3281 155.7344,21.1094 Q155.125,20.8906 154.5,20.8906 Q153.7344,20.8906 153.1016,21.2188 Q152.4688,21.5469 151.9766,22.2969 Q151.4844,23.0469 151.4844,24.0781 L151.4844,25.1719 Q151.4844,26.4063 152.375,27.2266 Q153.2656,28.0469 154.8594,28.0469 Q155.7969,28.0469 156.4531,27.7969 Q156.8438,27.6406 157.2656,27.2031 Q157.5313,26.9375 157.6797,26.8594 Q157.8281,26.7813 158.0313,26.7813 Q158.3594,26.7813 158.6172,27.0391 Q158.875,27.2969 158.875,27.6406 Q158.875,27.9844 158.5313,28.3906 Q158.0313,28.9688 157.2344,29.2969 Q156.1563,29.75 154.8594,29.75 Q153.3438,29.75 152.1406,29.125 Q151.1563,28.625 150.4688,27.5547 Q149.7813,26.4844 149.7813,25.2031 L149.7813,24.0469 Q149.7813,22.7188 150.3984,21.5703 Q151.0156,20.4219 152.1094,19.8047 Q153.2031,19.1875 154.4375,19.1875 Q155.1719,19.1875 155.8203,19.3516 Q156.4688,19.5156 157.0156,19.875 Z "/><text fill="#000000" font-family="sans-serif" font-size="12" lengthAdjust="spacingAndGlyphs" textLength="40" x="174.75" y="28.9102">Record</text><line style="stroke: #A80036; stroke-width: 1.5;" x1="7" x2="350" y1="40" y2="40"/><ellipse cx="17" cy="70.2539" fill="none" rx="3" ry="3" style="stroke: #038048; stroke-width: 1.0;"/><text fill="#000000" font-family="sans-serif" font-size="11" lengthAdjust="spacingAndGlyphs" textLength="112" x="26" y="73.2549">accelerations: np.array</text><ellipse cx="17" cy="84.0898" fill="none" rx="3" ry="3" style="stroke: #038048; stroke-width: 1.0;"/><text fill="#000000" font-family="sans-serif" font-size="11" lengthAdjust="spacingAndGlyphs" textLength="36" x="26" y="87.0908">dt: float</text><line style="stroke: #A80036; stroke-width: 1.0; stroke-dasharray: 1.0,2.0;" x1="7" x2="136" y1="54.918" y2="54.918"/><text fill="#000000" font-family="sans-serif" font-size="11" lengthAdjust="spacingAndGlyphs" textLength="85" x="136" y="58.9189">initialize attributes</text><line style="stroke: #A80036; stroke-width: 1.0; stroke-dasharray: 1.0,2.0;" x1="221" x2="350" y1="54.918" y2="54.918"/><ellipse cx="17" cy="115.7617" fill="none" rx="3" ry="3" style="stroke: #038048; stroke-width: 1.0;"/><text fill="#000000" font-family="sans-serif" font-size="11" lengthAdjust="spacingAndGlyphs" textLength="27" x="26" y="118.7627">steps</text><ellipse cx="17" cy="129.5977" fill="none" rx="3" ry="3" style="stroke: #038048; stroke-width: 1.0;"/><text fill="#000000" font-family="sans-serif" font-size="11" lengthAdjust="spacingAndGlyphs" textLength="45" x="26" y="132.5986">time_total</text><ellipse cx="17" cy="143.4336" fill="none" rx="3" ry="3" style="stroke: #038048; stroke-width: 1.0;"/><text fill="#000000" font-family="sans-serif" font-size="11" lengthAdjust="spacingAndGlyphs" textLength="19" x="26" y="146.4346">time</text><ellipse cx="17" cy="157.2695" fill="none" rx="3" ry="3" style="stroke: #038048; stroke-width: 1.0;"/><text fill="#000000" font-family="sans-serif" font-size="11" lengthAdjust="spacingAndGlyphs" textLength="45" x="26" y="160.2705">velocities</text><ellipse cx="17" cy="171.1055" fill="none" rx="3" ry="3" style="stroke: #038048; stroke-width: 1.0;"/><text fill="#000000" font-family="sans-serif" font-size="11" lengthAdjust="spacingAndGlyphs" textLength="69" x="26" y="174.1064">displacements</text><ellipse cx="17" cy="184.9414" fill="none" rx="3" ry="3" style="stroke: #038048; stroke-width: 1.0;"/><text fill="#000000" font-family="sans-serif" font-size="11" lengthAdjust="spacingAndGlyphs" textLength="28" x="26" y="187.9424">props</text><ellipse cx="17" cy="198.7773" fill="none" rx="3" ry="3" style="stroke: #038048; stroke-width: 1.0;"/><text fill="#000000" font-family="sans-serif" font-size="11" lengthAdjust="spacingAndGlyphs" textLength="26" x="26" y="201.7783">husid</text><ellipse cx="17" cy="212.6133" fill="none" rx="3" ry="3" style="stroke: #038048; stroke-width: 1.0;"/><text fill="#000000" font-family="sans-serif" font-size="11" lengthAdjust="spacingAndGlyphs" textLength="56" x="26" y="215.6143">husid_norm</text><line style="stroke: #A80036; stroke-width: 1.0; stroke-dasharray: 1.0,2.0;" x1="7" x2="134.5" y1="100.4258" y2="100.4258"/><text fill="#000000" font-family="sans-serif" font-size="11" lengthAdjust="spacingAndGlyphs" textLength="88" x="134.5" y="104.4268">cached properties</text><line style="stroke: #A80036; stroke-width: 1.0; stroke-dasharray: 1.0,2.0;" x1="222.5" x2="350" y1="100.4258" y2="100.4258"/><ellipse cx="17" cy="244.2852" fill="none" rx="3" ry="3" style="stroke: #038048; stroke-width: 1.0;"/><text fill="#000000" font-family="sans-serif" font-size="11" lengthAdjust="spacingAndGlyphs" textLength="30" x="26" y="247.2861">output</text><ellipse cx="17" cy="258.1211" fill="none" rx="3" ry="3" style="stroke: #038048; stroke-width: 1.0;"/><text fill="#000000" font-family="sans-serif" font-size="11" lengthAdjust="spacingAndGlyphs" textLength="78" x="26" y="261.1221">plot_time_series</text><line style="stroke: #A80036; stroke-width: 1.0; stroke-dasharray: 1.0,2.0;" x1="7" x2="154" y1="228.9492" y2="228.9492"/><text fill="#000000" font-family="sans-serif" font-size="11" lengthAdjust="spacingAndGlyphs" textLength="49" x="154" y="232.9502">properties</text><line style="stroke: #A80036; stroke-width: 1.0; stroke-dasharray: 1.0,2.0;" x1="203" x2="350" y1="228.9492" y2="228.9492"/><ellipse cx="17" cy="289.793" fill="#84BE84" rx="3" ry="3" style="stroke: #038048; stroke-width: 1.0;"/><text fill="#000000" font-family="sans-serif" font-size="11" lengthAdjust="spacingAndGlyphs" textLength="167" x="26" y="292.7939">from_one_column_txt(filename, dt)</text><ellipse cx="17" cy="303.6289" fill="#84BE84" rx="3" ry="3" style="stroke: #038048; stroke-width: 1.0;"/><text fill="#000000" font-family="sans-serif" font-size="11" lengthAdjust="spacingAndGlyphs" textLength="319" x="26" y="306.6299">from_multi_column_txt(filename, dt, skip_header=0, skip_footer=0)</text><ellipse cx="17" cy="317.4648" fill="#84BE84" rx="3" ry="3" style="stroke: #038048; stroke-width: 1.0;"/><text fill="#000000" font-family="sans-serif" font-size="11" lengthAdjust="spacingAndGlyphs" textLength="200" x="26" y="320.4658">from_karakostas_acc(filename, direction)</text><line style="stroke: #A80036; stroke-width: 1.0; stroke-dasharray: 1.0,2.0;" x1="7" x2="109" y1="274.457" y2="274.457"/><text fill="#000000" font-family="sans-serif" font-size="11" lengthAdjust="spacingAndGlyphs" textLength="139" x="109" y="278.458">classmethods - cunstructors</text><line style="stroke: #A80036; stroke-width: 1.0; stroke-dasharray: 1.0,2.0;" x1="248" x2="350" y1="274.457" y2="274.457"/><ellipse cx="17" cy="349.1367" fill="#84BE84" rx="3" ry="3" style="stroke: #038048; stroke-width: 1.0;"/><text fill="#000000" font-family="sans-serif" font-size="11" lengthAdjust="spacingAndGlyphs" textLength="270" x="26" y="352.1377">significant_duration(start_percentage, end_percentage)</text><text fill="#000000" font-family="sans-serif" font-size="11" lengthAdjust="spacingAndGlyphs" textLength="0" x="29" y="365.9736"/><line style="stroke: #A80036; stroke-width: 1.0; stroke-dasharray: 1.0,2.0;" x1="7" x2="158" y1="333.8008" y2="333.8008"/><text fill="#000000" font-family="sans-serif" font-size="11" lengthAdjust="spacingAndGlyphs" textLength="41" x="158" y="337.8018">methods</text><line style="stroke: #A80036; stroke-width: 1.0; stroke-dasharray: 1.0,2.0;" x1="199" x2="350" y1="333.8008" y2="333.8008"/><!--
@startuml
class Record {
.. initialize attributes ..
+ accelerations: np.array
+ dt: float
.. cached properties ..
+ steps
+ time_total
+ time
+ velocities
+ displacements
+ props
+ husid
+ husid_norm
.. properties ..
+ output
+ plot_time_series
.. classmethods - cunstructors ..
+ from_one_column_txt(filename, dt)
+ from_multi_column_txt(filename, dt, skip_header=0, skip_footer=0)
+ from_karakostas_acc(filename, direction)
.. methods ..
+ significant_duration(start_percentage, end_percentage)

}

@enduml

PlantUML version 1.2019.06(Fri May 24 20:10:25 EEST 2019)
(GPL source distribution)
Java Runtime: Java(TM) SE Runtime Environment
JVM: Java HotSpot(TM) 64-Bit Server VM
Java Version: 1.8.0_281-b09
Operating System: Windows 10
OS Version: 10.0
Default Encoding: Cp1253
Language: en
Country: US
--></g></svg>