<?xml version="1.0" encoding="UTF-8" standalone="no"?><svg xmlns="http://www.w3.org/2000/svg" xmlns:xlink="http://www.w3.org/1999/xlink" contentScriptType="application/ecmascript" contentStyleType="text/css" height="146px" preserveAspectRatio="none" style="width:237px;height:146px;" version="1.1" viewBox="0 0 237 146" width="237px" zoomAndPan="magnify"><defs><filter height="300%" id="f1a6731bwa6q8c" width="300%" x="-1" y="-1"><feGaussianBlur result="blurOut" stdDeviation="2.0"/><feColorMatrix in="blurOut" result="blurOut2" type="matrix" values="0 0 0 0 0 0 0 0 0 0 0 0 0 0 0 0 0 0 .4 0"/><feOffset dx="4.0" dy="4.0" in="blurOut2" result="blurOut3"/><feBlend in="SourceGraphic" in2="blurOut3" mode="normal"/></filter></defs><g><!--class lists_and_dicts_and_pandas_etc--><rect fill="#FEFECE" filter="url(#f1a6731bwa6q8c)" height="127.0156" id="lists_and_dicts_and_pandas_etc" style="stroke: #A80036; stroke-width: 1.5;" width="220" x="6" y="8"/><ellipse cx="22.8" cy="24" fill="#FF7700" rx="11" ry="11" style="stroke: #A80036; stroke-width: 1.0;"/><path d="M20.7375,22.2188 L20.7375,27.2969 L21.3625,27.2969 Q21.9719,27.2969 22.2297,27.5313 Q22.4875,27.7656 22.4875,28.1563 Q22.4875,28.5313 22.2297,28.7656 Q21.9719,29 21.3625,29 L19.1281,29 Q18.5031,29 18.2453,28.7656 Q17.9875,28.5313 17.9875,28.1406 Q17.9875,27.7656 18.2453,27.5313 Q18.5031,27.2969 19.0344,27.2969 L19.0344,20.6406 Q18.5969,20.5938 18.3625,20.3672 Q18.1281,20.1406 18.1281,19.7813 Q18.1281,19.4063 18.3938,19.1719 Q18.6594,18.9375 19.2688,18.9375 L21.1438,18.9375 L23.4563,24.0625 L25.7219,18.9375 L27.6125,18.9375 Q28.2219,18.9375 28.4875,19.1719 Q28.7531,19.4063 28.7531,19.7813 Q28.7531,20.1406 28.5188,20.3672 Q28.2844,20.5938 27.8469,20.6406 L27.8469,27.2969 Q28.3781,27.2969 28.6359,27.5391 Q28.8938,27.7813 28.8938,28.1563 Q28.8938,28.5313 28.6359,28.7656 Q28.3781,29 27.7688,29 L25.5188,29 Q24.9094,29 24.6516,28.7656 Q24.3938,28.5313 24.3938,28.1406 Q24.3938,27.7656 24.6516,27.5313 Q24.9094,27.2969 25.5188,27.2969 L26.1438,27.2969 L26.1438,22.2188 L24.1906,26.6094 L22.7219,26.6094 L20.7375,22.2188 Z "/><text fill="#000000" font-family="sans-serif" font-size="12" lengthAdjust="spacingAndGlyphs" textLength="184" x="37.2" y="28.9102">lists_and_dicts_and_pandas_etc</text><line style="stroke: #A80036; stroke-width: 1.5;" x1="7" x2="225" y1="40" y2="40"/><ellipse cx="17" cy="70.2539" fill="#84BE84" rx="3" ry="3" style="stroke: #038048; stroke-width: 1.0;"/><text fill="#000000" font-family="sans-serif" font-size="11" lengthAdjust="spacingAndGlyphs" textLength="192" x="26" y="73.2549">area_under_curve(x, y, x_start, x_end)</text><ellipse cx="17" cy="84.0898" fill="#84BE84" rx="3" ry="3" style="stroke: #038048; stroke-width: 1.0;"/><text fill="#000000" font-family="sans-serif" font-size="11" lengthAdjust="spacingAndGlyphs" textLength="194" x="26" y="87.0908">xy_with_endpoints(x, y, x_start, x_end)</text><ellipse cx="17" cy="97.9258" fill="#84BE84" rx="3" ry="3" style="stroke: #038048; stroke-width: 1.0;"/><text fill="#000000" font-family="sans-serif" font-size="11" lengthAdjust="spacingAndGlyphs" textLength="130" x="26" y="100.9268">intersection(x1, y1, x2, y2)</text><rect fill="#F24D5C" height="6" style="stroke: #C82930; stroke-width: 1.0;" width="6" x="14" y="108.7617"/><text fill="#000000" font-family="sans-serif" font-size="11" lengthAdjust="spacingAndGlyphs" textLength="120" x="26" y="114.7627">_rect_inter_inner(x1, x2)</text><rect fill="#F24D5C" height="6" style="stroke: #C82930; stroke-width: 1.0;" width="6" x="14" y="122.5977"/><text fill="#000000" font-family="sans-serif" font-size="11" lengthAdjust="spacingAndGlyphs" textLength="184" x="26" y="128.5986">_rectangle_intersection_(x1,y1,x2,y2)</text><line style="stroke: #A80036; stroke-width: 1.0; stroke-dasharray: 1.0,2.0;" x1="7" x2="93.5" y1="54.918" y2="54.918"/><text fill="#000000" font-family="sans-serif" font-size="11" lengthAdjust="spacingAndGlyphs" textLength="45" x="93.5" y="58.9189">functions</text><line style="stroke: #A80036; stroke-width: 1.0; stroke-dasharray: 1.0,2.0;" x1="138.5" x2="225" y1="54.918" y2="54.918"/><!--
@startuml
class lists_and_dicts_and_pandas_etc <<(M,#FF7700)>> {
.. functions ..
+ area_under_curve(x, y, x_start, x_end)
+ xy_with_endpoints(x, y, x_start, x_end)
+ intersection(x1, y1, x2, y2)
- _rect_inter_inner(x1, x2)
- _rectangle_intersection_(x1,y1,x2,y2)
}

@enduml

PlantUML version 1.2019.06(Fri May 24 20:10:25 EEST 2019)
(GPL source distribution)
Java Runtime: Java(TM) SE Runtime Environment
JVM: Java HotSpot(TM) 64-Bit Server VM
Java Version: 1.8.0_281-b09
Operating System: Windows 10
OS Version: 10.0
Default Encoding: Cp1253
Language: en
Country: US
--></g></svg>