<?xml version="1.0" encoding="UTF-8" standalone="no"?><svg xmlns="http://www.w3.org/2000/svg" xmlns:xlink="http://www.w3.org/1999/xlink" contentScriptType="application/ecmascript" contentStyleType="text/css" height="268px" preserveAspectRatio="none" style="width:175px;height:268px;" version="1.1" viewBox="0 0 175 268" width="175px" zoomAndPan="magnify"><defs><filter height="300%" id="fx3jh6b8j9php" width="300%" x="-1" y="-1"><feGaussianBlur result="blurOut" stdDeviation="2.0"/><feColorMatrix in="blurOut" result="blurOut2" type="matrix" values="0 0 0 0 0 0 0 0 0 0 0 0 0 0 0 0 0 0 .4 0"/><feOffset dx="4.0" dy="4.0" in="blurOut2" result="blurOut3"/><feBlend in="SourceGraphic" in2="blurOut3" mode="normal"/></filter></defs><g><!--class Record--><rect fill="#FEFECE" filter="url(#fx3jh6b8j9php)" height="249.7031" id="Record" style="stroke: #A80036; stroke-width: 1.5;" width="158" x="6" y="8"/><ellipse cx="60.75" cy="24" fill="#ADD1B2" rx="11" ry="11" style="stroke: #A80036; stroke-width: 1.0;"/><path d="M63.5156,19.875 Q63.6719,19.6563 63.8594,19.5469 Q64.0469,19.4375 64.2656,19.4375 Q64.6406,19.4375 64.875,19.6953 Q65.1094,19.9531 65.1094,20.5625 L65.1094,22.0156 Q65.1094,22.625 64.875,22.8906 Q64.6406,23.1563 64.2656,23.1563 Q63.9219,23.1563 63.7188,22.9531 Q63.5156,22.7656 63.4063,22.25 Q63.3594,21.8906 63.1719,21.7031 Q62.8438,21.3281 62.2344,21.1094 Q61.625,20.8906 61,20.8906 Q60.2344,20.8906 59.6016,21.2188 Q58.9688,21.5469 58.4766,22.2969 Q57.9844,23.0469 57.9844,24.0781 L57.9844,25.1719 Q57.9844,26.4063 58.875,27.2266 Q59.7656,28.0469 61.3594,28.0469 Q62.2969,28.0469 62.9531,27.7969 Q63.3438,27.6406 63.7656,27.2031 Q64.0313,26.9375 64.1797,26.8594 Q64.3281,26.7813 64.5313,26.7813 Q64.8594,26.7813 65.1172,27.0391 Q65.375,27.2969 65.375,27.6406 Q65.375,27.9844 65.0313,28.3906 Q64.5313,28.9688 63.7344,29.2969 Q62.6563,29.75 61.3594,29.75 Q59.8438,29.75 58.6406,29.125 Q57.6563,28.625 56.9688,27.5547 Q56.2813,26.4844 56.2813,25.2031 L56.2813,24.0469 Q56.2813,22.7188 56.8984,21.5703 Q57.5156,20.4219 58.6094,19.8047 Q59.7031,19.1875 60.9375,19.1875 Q61.6719,19.1875 62.3203,19.3516 Q62.9688,19.5156 63.5156,19.875 Z "/><text fill="#000000" font-family="sans-serif" font-size="12" lengthAdjust="spacingAndGlyphs" textLength="40" x="81.25" y="28.9102">Record</text><line style="stroke: #A80036; stroke-width: 1.5;" x1="7" x2="163" y1="40" y2="40"/><ellipse cx="17" cy="70.2539" fill="none" rx="3" ry="3" style="stroke: #038048; stroke-width: 1.0;"/><text fill="#000000" font-family="sans-serif" font-size="11" lengthAdjust="spacingAndGlyphs" textLength="112" x="26" y="73.2549">accelerations: np.array</text><ellipse cx="17" cy="84.0898" fill="none" rx="3" ry="3" style="stroke: #038048; stroke-width: 1.0;"/><text fill="#000000" font-family="sans-serif" font-size="11" lengthAdjust="spacingAndGlyphs" textLength="36" x="26" y="87.0908">dt: float</text><text fill="#000000" font-family="sans-serif" font-size="11" lengthAdjust="spacingAndGlyphs" textLength="0" x="29" y="100.9268"/><line style="stroke: #A80036; stroke-width: 1.0; stroke-dasharray: 1.0,2.0;" x1="7" x2="42.5" y1="54.918" y2="54.918"/><text fill="#000000" font-family="sans-serif" font-size="11" lengthAdjust="spacingAndGlyphs" textLength="85" x="42.5" y="58.9189">initialize attributes</text><line style="stroke: #A80036; stroke-width: 1.0; stroke-dasharray: 1.0,2.0;" x1="127.5" x2="163" y1="54.918" y2="54.918"/><ellipse cx="17" cy="129.5977" fill="#84BE84" rx="3" ry="3" style="stroke: #038048; stroke-width: 1.0;"/><text fill="#000000" font-family="sans-serif" font-size="11" lengthAdjust="spacingAndGlyphs" textLength="112" x="26" y="132.5986">calculate_time_series()</text><ellipse cx="17" cy="143.4336" fill="#84BE84" rx="3" ry="3" style="stroke: #038048; stroke-width: 1.0;"/><text fill="#000000" font-family="sans-serif" font-size="11" lengthAdjust="spacingAndGlyphs" textLength="80" x="26" y="146.4346">NigamJennings()</text><text fill="#000000" font-family="sans-serif" font-size="11" lengthAdjust="spacingAndGlyphs" textLength="0" x="29" y="160.2705"/><line style="stroke: #A80036; stroke-width: 1.0; stroke-dasharray: 1.0,2.0;" x1="7" x2="51.5" y1="114.2617" y2="114.2617"/><text fill="#000000" font-family="sans-serif" font-size="11" lengthAdjust="spacingAndGlyphs" textLength="67" x="51.5" y="118.2627">classmethods</text><line style="stroke: #A80036; stroke-width: 1.0; stroke-dasharray: 1.0,2.0;" x1="118.5" x2="163" y1="114.2617" y2="114.2617"/><ellipse cx="17" cy="188.9414" fill="none" rx="3" ry="3" style="stroke: #038048; stroke-width: 1.0;"/><text fill="#000000" font-family="sans-serif" font-size="11" lengthAdjust="spacingAndGlyphs" textLength="132" x="26" y="191.9424">show_spectra_parameters</text><text fill="#000000" font-family="sans-serif" font-size="11" lengthAdjust="spacingAndGlyphs" textLength="0" x="29" y="205.7783"/><line style="stroke: #A80036; stroke-width: 1.0; stroke-dasharray: 1.0,2.0;" x1="7" x2="51.5" y1="173.6055" y2="173.6055"/><text fill="#000000" font-family="sans-serif" font-size="11" lengthAdjust="spacingAndGlyphs" textLength="67" x="51.5" y="177.6064">staticmethods</text><line style="stroke: #A80036; stroke-width: 1.0; stroke-dasharray: 1.0,2.0;" x1="118.5" x2="163" y1="173.6055" y2="173.6055"/><ellipse cx="17" cy="234.4492" fill="none" rx="3" ry="3" style="stroke: #038048; stroke-width: 1.0;"/><text fill="#000000" font-family="sans-serif" font-size="11" lengthAdjust="spacingAndGlyphs" textLength="58" x="26" y="237.4502">get_spectra</text><text fill="#000000" font-family="sans-serif" font-size="11" lengthAdjust="spacingAndGlyphs" textLength="0" x="29" y="251.2861"/><line style="stroke: #A80036; stroke-width: 1.0; stroke-dasharray: 1.0,2.0;" x1="7" x2="64.5" y1="219.1133" y2="219.1133"/><text fill="#000000" font-family="sans-serif" font-size="11" lengthAdjust="spacingAndGlyphs" textLength="41" x="64.5" y="223.1143">methods</text><line style="stroke: #A80036; stroke-width: 1.0; stroke-dasharray: 1.0,2.0;" x1="105.5" x2="163" y1="219.1133" y2="219.1133"/><!--
@startuml
class Record {
.. initialize attributes ..
+ accelerations: np.array
+ dt: float

.. classmethods ..
+ calculate_time_series()
+ NigamJennings()

.. staticmethods ..
+ show_spectra_parameters

.. methods ..
+ get_spectra

}

@enduml

PlantUML version 1.2019.06(Fri May 24 20:10:25 EEST 2019)
(GPL source distribution)
Java Runtime: Java(TM) SE Runtime Environment
JVM: Java HotSpot(TM) 64-Bit Server VM
Java Version: 1.8.0_281-b09
Operating System: Windows 10
OS Version: 10.0
Default Encoding: Cp1253
Language: en
Country: US
--></g></svg>