<?xml version="1.0" encoding="UTF-8" standalone="no"?><svg xmlns="http://www.w3.org/2000/svg" xmlns:xlink="http://www.w3.org/1999/xlink" contentScriptType="application/ecmascript" contentStyleType="text/css" height="341px" preserveAspectRatio="none" style="width:398px;height:341px;" version="1.1" viewBox="0 0 398 341" width="398px" zoomAndPan="magnify"><defs><filter height="300%" id="fek5d65nu2jr2" width="300%" x="-1" y="-1"><feGaussianBlur result="blurOut" stdDeviation="2.0"/><feColorMatrix in="blurOut" result="blurOut2" type="matrix" values="0 0 0 0 0 0 0 0 0 0 0 0 0 0 0 0 0 0 .4 0"/><feOffset dx="4.0" dy="4.0" in="blurOut2" result="blurOut3"/><feBlend in="SourceGraphic" in2="blurOut3" mode="normal"/></filter></defs><g><!--class LongReinforcementLayer--><rect fill="#FEFECE" filter="url(#fek5d65nu2jr2)" height="322.8828" id="LongReinforcementLayer" style="stroke: #A80036; stroke-width: 1.5;" width="171" x="6" y="8"/><ellipse cx="21" cy="24" fill="#FF7700" rx="11" ry="11" style="stroke: #A80036; stroke-width: 1.0;"/><path d="M23.7656,19.875 Q23.9219,19.6563 24.1094,19.5469 Q24.2969,19.4375 24.5156,19.4375 Q24.8906,19.4375 25.125,19.6953 Q25.3594,19.9531 25.3594,20.5625 L25.3594,22.0156 Q25.3594,22.625 25.125,22.8906 Q24.8906,23.1563 24.5156,23.1563 Q24.1719,23.1563 23.9688,22.9531 Q23.7656,22.7656 23.6563,22.25 Q23.6094,21.8906 23.4219,21.7031 Q23.0938,21.3281 22.4844,21.1094 Q21.875,20.8906 21.25,20.8906 Q20.4844,20.8906 19.8516,21.2188 Q19.2188,21.5469 18.7266,22.2969 Q18.2344,23.0469 18.2344,24.0781 L18.2344,25.1719 Q18.2344,26.4063 19.125,27.2266 Q20.0156,28.0469 21.6094,28.0469 Q22.5469,28.0469 23.2031,27.7969 Q23.5938,27.6406 24.0156,27.2031 Q24.2813,26.9375 24.4297,26.8594 Q24.5781,26.7813 24.7813,26.7813 Q25.1094,26.7813 25.3672,27.0391 Q25.625,27.2969 25.625,27.6406 Q25.625,27.9844 25.2813,28.3906 Q24.7813,28.9688 23.9844,29.2969 Q22.9063,29.75 21.6094,29.75 Q20.0938,29.75 18.8906,29.125 Q17.9063,28.625 17.2188,27.5547 Q16.5313,26.4844 16.5313,25.2031 L16.5313,24.0469 Q16.5313,22.7188 17.1484,21.5703 Q17.7656,20.4219 18.8594,19.8047 Q19.9531,19.1875 21.1875,19.1875 Q21.9219,19.1875 22.5703,19.3516 Q23.2188,19.5156 23.7656,19.875 Z "/><text fill="#000000" font-family="sans-serif" font-size="12" lengthAdjust="spacingAndGlyphs" textLength="139" x="35" y="28.9102">LongReinforcementLayer</text><line style="stroke: #A80036; stroke-width: 1.5;" x1="7" x2="176" y1="40" y2="40"/><rect fill="none" height="6" style="stroke: #C82930; stroke-width: 1.0;" width="6" x="14" y="67.2539"/><text fill="#000000" font-family="sans-serif" font-size="11" lengthAdjust="spacingAndGlyphs" textLength="120" x="26" y="73.2549">__cached_props_list: list</text><line style="stroke: #A80036; stroke-width: 1.0; stroke-dasharray: 1.0,2.0;" x1="7" x2="56" y1="54.918" y2="54.918"/><text fill="#000000" font-family="sans-serif" font-size="11" lengthAdjust="spacingAndGlyphs" textLength="71" x="56" y="58.9189">class atributes</text><line style="stroke: #A80036; stroke-width: 1.0; stroke-dasharray: 1.0,2.0;" x1="127" x2="176" y1="54.918" y2="54.918"/><ellipse cx="17" cy="101.9258" fill="none" rx="3" ry="3" style="stroke: #038048; stroke-width: 1.0;"/><text fill="#000000" font-family="sans-serif" font-size="11" lengthAdjust="spacingAndGlyphs" textLength="31" x="26" y="104.9268">ns: list</text><ellipse cx="17" cy="115.7617" fill="none" rx="3" ry="3" style="stroke: #038048; stroke-width: 1.0;"/><text fill="#000000" font-family="sans-serif" font-size="11" lengthAdjust="spacingAndGlyphs" textLength="39" x="26" y="118.7627">dias: list</text><ellipse cx="17" cy="129.5977" fill="none" rx="3" ry="3" style="stroke: #038048; stroke-width: 1.0;"/><text fill="#000000" font-family="sans-serif" font-size="11" lengthAdjust="spacingAndGlyphs" textLength="85" x="26" y="132.5986">units_input: string</text><ellipse cx="17" cy="143.4336" fill="none" rx="3" ry="3" style="stroke: #038048; stroke-width: 1.0;"/><text fill="#000000" font-family="sans-serif" font-size="11" lengthAdjust="spacingAndGlyphs" textLength="92" x="26" y="146.4346">units_output: string</text><line style="stroke: #A80036; stroke-width: 1.0; stroke-dasharray: 1.0,2.0;" x1="7" x2="69" y1="86.5898" y2="86.5898"/><text fill="#000000" font-family="sans-serif" font-size="11" lengthAdjust="spacingAndGlyphs" textLength="45" x="69" y="90.5908">attributes</text><line style="stroke: #A80036; stroke-width: 1.0; stroke-dasharray: 1.0,2.0;" x1="114" x2="176" y1="86.5898" y2="86.5898"/><rect fill="none" height="6" style="stroke: #C82930; stroke-width: 1.0;" width="6" x="14" y="172.1055"/><text fill="#000000" font-family="sans-serif" font-size="11" lengthAdjust="spacingAndGlyphs" textLength="105" x="26" y="178.1064">length_multiplier_input</text><rect fill="none" height="6" style="stroke: #C82930; stroke-width: 1.0;" width="6" x="14" y="185.9414"/><text fill="#000000" font-family="sans-serif" font-size="11" lengthAdjust="spacingAndGlyphs" textLength="112" x="26" y="191.9424">length_multiplier_output</text><line style="stroke: #A80036; stroke-width: 1.0; stroke-dasharray: 1.0,2.0;" x1="7" x2="67" y1="159.7695" y2="159.7695"/><text fill="#000000" font-family="sans-serif" font-size="11" lengthAdjust="spacingAndGlyphs" textLength="49" x="67" y="163.7705">properties</text><line style="stroke: #A80036; stroke-width: 1.0; stroke-dasharray: 1.0,2.0;" x1="116" x2="176" y1="159.7695" y2="159.7695"/><ellipse cx="17" cy="220.6133" fill="none" rx="3" ry="3" style="stroke: #038048; stroke-width: 1.0;"/><text fill="#000000" font-family="sans-serif" font-size="11" lengthAdjust="spacingAndGlyphs" textLength="53" x="26" y="223.6143">Astot: float</text><ellipse cx="17" cy="234.4492" fill="none" rx="3" ry="3" style="stroke: #038048; stroke-width: 1.0;"/><text fill="#000000" font-family="sans-serif" font-size="11" lengthAdjust="spacingAndGlyphs" textLength="45" x="26" y="237.4502">ntot: float</text><ellipse cx="17" cy="248.2852" fill="none" rx="3" ry="3" style="stroke: #038048; stroke-width: 1.0;"/><text fill="#000000" font-family="sans-serif" font-size="11" lengthAdjust="spacingAndGlyphs" textLength="63" x="26" y="251.2861">dia_min: float</text><ellipse cx="17" cy="262.1211" fill="none" rx="3" ry="3" style="stroke: #038048; stroke-width: 1.0;"/><text fill="#000000" font-family="sans-serif" font-size="11" lengthAdjust="spacingAndGlyphs" textLength="67" x="26" y="265.1221">dia_max: float</text><ellipse cx="17" cy="275.957" fill="none" rx="3" ry="3" style="stroke: #038048; stroke-width: 1.0;"/><text fill="#000000" font-family="sans-serif" font-size="11" lengthAdjust="spacingAndGlyphs" textLength="73" x="26" y="278.958">dia_equiv: float</text><ellipse cx="17" cy="289.793" fill="none" rx="3" ry="3" style="stroke: #038048; stroke-width: 1.0;"/><text fill="#000000" font-family="sans-serif" font-size="11" lengthAdjust="spacingAndGlyphs" textLength="73" x="26" y="292.7939">As_equiv: float</text><line style="stroke: #A80036; stroke-width: 1.0; stroke-dasharray: 1.0,2.0;" x1="7" x2="46" y1="205.2773" y2="205.2773"/><text fill="#000000" font-family="sans-serif" font-size="11" lengthAdjust="spacingAndGlyphs" textLength="91" x="46" y="209.2783">cached_properties</text><line style="stroke: #A80036; stroke-width: 1.0; stroke-dasharray: 1.0,2.0;" x1="137" x2="176" y1="205.2773" y2="205.2773"/><rect fill="#F24D5C" height="6" style="stroke: #C82930; stroke-width: 1.0;" width="6" x="14" y="318.4648"/><text fill="#000000" font-family="sans-serif" font-size="11" lengthAdjust="spacingAndGlyphs" textLength="89" x="26" y="324.4658">invalidate_cache()</text><line style="stroke: #A80036; stroke-width: 1.0; stroke-dasharray: 1.0,2.0;" x1="7" x2="71" y1="306.1289" y2="306.1289"/><text fill="#000000" font-family="sans-serif" font-size="11" lengthAdjust="spacingAndGlyphs" textLength="41" x="71" y="310.1299">methods</text><line style="stroke: #A80036; stroke-width: 1.0; stroke-dasharray: 1.0,2.0;" x1="112" x2="176" y1="306.1289" y2="306.1289"/><!--class TransReinforcementLayer--><rect fill="#FEFECE" filter="url(#fek5d65nu2jr2)" height="61.8359" id="TransReinforcementLayer" style="stroke: #A80036; stroke-width: 1.5;" width="175" x="212" y="138.5"/><ellipse cx="227" cy="154.5" fill="#FF7700" rx="11" ry="11" style="stroke: #A80036; stroke-width: 1.0;"/><path d="M229.7656,150.375 Q229.9219,150.1563 230.1094,150.0469 Q230.2969,149.9375 230.5156,149.9375 Q230.8906,149.9375 231.125,150.1953 Q231.3594,150.4531 231.3594,151.0625 L231.3594,152.5156 Q231.3594,153.125 231.125,153.3906 Q230.8906,153.6563 230.5156,153.6563 Q230.1719,153.6563 229.9688,153.4531 Q229.7656,153.2656 229.6563,152.75 Q229.6094,152.3906 229.4219,152.2031 Q229.0938,151.8281 228.4844,151.6094 Q227.875,151.3906 227.25,151.3906 Q226.4844,151.3906 225.8516,151.7188 Q225.2188,152.0469 224.7266,152.7969 Q224.2344,153.5469 224.2344,154.5781 L224.2344,155.6719 Q224.2344,156.9063 225.125,157.7266 Q226.0156,158.5469 227.6094,158.5469 Q228.5469,158.5469 229.2031,158.2969 Q229.5938,158.1406 230.0156,157.7031 Q230.2813,157.4375 230.4297,157.3594 Q230.5781,157.2813 230.7813,157.2813 Q231.1094,157.2813 231.3672,157.5391 Q231.625,157.7969 231.625,158.1406 Q231.625,158.4844 231.2813,158.8906 Q230.7813,159.4688 229.9844,159.7969 Q228.9063,160.25 227.6094,160.25 Q226.0938,160.25 224.8906,159.625 Q223.9063,159.125 223.2188,158.0547 Q222.5313,156.9844 222.5313,155.7031 L222.5313,154.5469 Q222.5313,153.2188 223.1484,152.0703 Q223.7656,150.9219 224.8594,150.3047 Q225.9531,149.6875 227.1875,149.6875 Q227.9219,149.6875 228.5703,149.8516 Q229.2188,150.0156 229.7656,150.375 Z "/><text fill="#000000" font-family="sans-serif" font-size="12" lengthAdjust="spacingAndGlyphs" textLength="143" x="241" y="159.4102">TransReinforcementLayer</text><line style="stroke: #A80036; stroke-width: 1.5;" x1="213" x2="386" y1="170.5" y2="170.5"/><text fill="#000000" font-family="sans-serif" font-size="11" lengthAdjust="spacingAndGlyphs" textLength="20" x="218" y="185.9189">vlivli</text><line style="stroke: #A80036; stroke-width: 1.5;" x1="213" x2="386" y1="192.3359" y2="192.3359"/><!--
@startuml
class LongReinforcementLayer <<(C,#FF7700)>> {
    .. class atributes ..
    - __cached_props_list: list
    .. attributes ..
    + ns: list
    + dias: list
    + units_input: string
    + units_output: string
    .. properties ..
    - length_multiplier_input
    - length_multiplier_output
    .. cached_properties ..
    + Astot: float
    + ntot: float
    + dia_min: float
    + dia_max: float
    + dia_equiv: float
    + As_equiv: float
    .. methods ..
    - invalidate_cache()
}

class TransReinforcementLayer <<(C,#FF7700)>> {
    vlivli
}

@enduml

PlantUML version 1.2019.06(Fri May 24 20:10:25 EEST 2019)
(GPL source distribution)
Java Runtime: Java(TM) SE Runtime Environment
JVM: Java HotSpot(TM) 64-Bit Server VM
Java Version: 1.8.0_281-b09
Operating System: Windows 10
OS Version: 10.0
Default Encoding: Cp1253
Language: en
Country: US
--></g></svg>