<?xml version="1.0" encoding="UTF-8" standalone="no"?><svg xmlns="http://www.w3.org/2000/svg" xmlns:xlink="http://www.w3.org/1999/xlink" contentScriptType="application/ecmascript" contentStyleType="text/css" height="320px" preserveAspectRatio="none" style="width:183px;height:320px;" version="1.1" viewBox="0 0 183 320" width="183px" zoomAndPan="magnify"><defs><filter height="300%" id="f3ljwhvks17wz" width="300%" x="-1" y="-1"><feGaussianBlur result="blurOut" stdDeviation="2.0"/><feColorMatrix in="blurOut" result="blurOut2" type="matrix" values="0 0 0 0 0 0 0 0 0 0 0 0 0 0 0 0 0 0 .4 0"/><feOffset dx="4.0" dy="4.0" in="blurOut2" result="blurOut3"/><feBlend in="SourceGraphic" in2="blurOut3" mode="normal"/></filter></defs><g><!--class Bilin--><rect fill="#FEFECE" filter="url(#f3ljwhvks17wz)" height="301.0469" id="Bilin" style="stroke: #A80036; stroke-width: 1.5;" width="166" x="6" y="8"/><ellipse cx="72.75" cy="24" fill="#ADD1B2" rx="11" ry="11" style="stroke: #A80036; stroke-width: 1.0;"/><path d="M75.5156,19.875 Q75.6719,19.6563 75.8594,19.5469 Q76.0469,19.4375 76.2656,19.4375 Q76.6406,19.4375 76.875,19.6953 Q77.1094,19.9531 77.1094,20.5625 L77.1094,22.0156 Q77.1094,22.625 76.875,22.8906 Q76.6406,23.1563 76.2656,23.1563 Q75.9219,23.1563 75.7188,22.9531 Q75.5156,22.7656 75.4063,22.25 Q75.3594,21.8906 75.1719,21.7031 Q74.8438,21.3281 74.2344,21.1094 Q73.625,20.8906 73,20.8906 Q72.2344,20.8906 71.6016,21.2188 Q70.9688,21.5469 70.4766,22.2969 Q69.9844,23.0469 69.9844,24.0781 L69.9844,25.1719 Q69.9844,26.4063 70.875,27.2266 Q71.7656,28.0469 73.3594,28.0469 Q74.2969,28.0469 74.9531,27.7969 Q75.3438,27.6406 75.7656,27.2031 Q76.0313,26.9375 76.1797,26.8594 Q76.3281,26.7813 76.5313,26.7813 Q76.8594,26.7813 77.1172,27.0391 Q77.375,27.2969 77.375,27.6406 Q77.375,27.9844 77.0313,28.3906 Q76.5313,28.9688 75.7344,29.2969 Q74.6563,29.75 73.3594,29.75 Q71.8438,29.75 70.6406,29.125 Q69.6563,28.625 68.9688,27.5547 Q68.2813,26.4844 68.2813,25.2031 L68.2813,24.0469 Q68.2813,22.7188 68.8984,21.5703 Q69.5156,20.4219 70.6094,19.8047 Q71.7031,19.1875 72.9375,19.1875 Q73.6719,19.1875 74.3203,19.3516 Q74.9688,19.5156 75.5156,19.875 Z "/><text fill="#000000" font-family="sans-serif" font-size="12" lengthAdjust="spacingAndGlyphs" textLength="24" x="93.25" y="28.9102">Bilin</text><line style="stroke: #A80036; stroke-width: 1.5;" x1="7" x2="171" y1="40" y2="40"/><ellipse cx="17" cy="70.2539" fill="#84BE84" rx="3" ry="3" style="stroke: #038048; stroke-width: 1.0;"/><text fill="#000000" font-family="sans-serif" font-size="11" lengthAdjust="spacingAndGlyphs" textLength="140" x="26" y="73.2549">curve_ini: LineXY = LineXY()</text><ellipse cx="17" cy="84.0898" fill="none" rx="3" ry="3" style="stroke: #038048; stroke-width: 1.0;"/><text fill="#000000" font-family="sans-serif" font-size="11" lengthAdjust="spacingAndGlyphs" textLength="88" x="26" y="87.0908">xtarget: float = 0.0</text><ellipse cx="17" cy="97.9258" fill="none" rx="3" ry="3" style="stroke: #038048; stroke-width: 1.0;"/><text fill="#000000" font-family="sans-serif" font-size="11" lengthAdjust="spacingAndGlyphs" textLength="122" x="26" y="100.9268">dropstrength: float = 0.75</text><ellipse cx="17" cy="111.7617" fill="none" rx="3" ry="3" style="stroke: #038048; stroke-width: 1.0;"/><text fill="#000000" font-family="sans-serif" font-size="11" lengthAdjust="spacingAndGlyphs" textLength="124" x="26" y="114.7627">elastoplastic: bool = False</text><ellipse cx="17" cy="125.5977" fill="none" rx="3" ry="3" style="stroke: #038048; stroke-width: 1.0;"/><text fill="#000000" font-family="sans-serif" font-size="11" lengthAdjust="spacingAndGlyphs" textLength="110" x="26" y="128.5986">allowa010: bool = True</text><ellipse cx="17" cy="139.4336" fill="none" rx="3" ry="3" style="stroke: #038048; stroke-width: 1.0;"/><text fill="#000000" font-family="sans-serif" font-size="11" lengthAdjust="spacingAndGlyphs" textLength="126" x="26" y="142.4346">EPSILON: float = 0.000001</text><line style="stroke: #A80036; stroke-width: 1.0; stroke-dasharray: 1.0,2.0;" x1="7" x2="67" y1="54.918" y2="54.918"/><text fill="#000000" font-family="sans-serif" font-size="11" lengthAdjust="spacingAndGlyphs" textLength="44" x="67" y="58.9189">members</text><line style="stroke: #A80036; stroke-width: 1.0; stroke-dasharray: 1.0,2.0;" x1="111" x2="171" y1="54.918" y2="54.918"/><ellipse cx="17" cy="171.1055" fill="#84BE84" rx="3" ry="3" style="stroke: #038048; stroke-width: 1.0;"/><text fill="#000000" font-family="sans-serif" font-size="11" lengthAdjust="spacingAndGlyphs" textLength="40" x="26" y="174.1064">x_max()</text><ellipse cx="17" cy="184.9414" fill="#84BE84" rx="3" ry="3" style="stroke: #038048; stroke-width: 1.0;"/><text fill="#000000" font-family="sans-serif" font-size="11" lengthAdjust="spacingAndGlyphs" textLength="36" x="26" y="187.9424">x_min()</text><ellipse cx="17" cy="198.7773" fill="#84BE84" rx="3" ry="3" style="stroke: #038048; stroke-width: 1.0;"/><text fill="#000000" font-family="sans-serif" font-size="11" lengthAdjust="spacingAndGlyphs" textLength="40" x="26" y="201.7783">y_max()</text><ellipse cx="17" cy="212.6133" fill="#84BE84" rx="3" ry="3" style="stroke: #038048; stroke-width: 1.0;"/><text fill="#000000" font-family="sans-serif" font-size="11" lengthAdjust="spacingAndGlyphs" textLength="36" x="26" y="215.6143">y_min()</text><ellipse cx="17" cy="226.4492" fill="#84BE84" rx="3" ry="3" style="stroke: #038048; stroke-width: 1.0;"/><text fill="#000000" font-family="sans-serif" font-size="11" lengthAdjust="spacingAndGlyphs" textLength="72" x="26" y="229.4502">y_max_index()</text><line style="stroke: #A80036; stroke-width: 1.0; stroke-dasharray: 1.0,2.0;" x1="7" x2="64.5" y1="155.7695" y2="155.7695"/><text fill="#000000" font-family="sans-serif" font-size="11" lengthAdjust="spacingAndGlyphs" textLength="49" x="64.5" y="159.7705">properties</text><line style="stroke: #A80036; stroke-width: 1.0; stroke-dasharray: 1.0,2.0;" x1="113.5" x2="171" y1="155.7695" y2="155.7695"/><ellipse cx="17" cy="258.1211" fill="#84BE84" rx="3" ry="3" style="stroke: #038048; stroke-width: 1.0;"/><text fill="#000000" font-family="sans-serif" font-size="11" lengthAdjust="spacingAndGlyphs" textLength="28" x="26" y="261.1221">calc()</text><rect fill="#F24D5C" height="6" style="stroke: #C82930; stroke-width: 1.0;" width="6" x="14" y="268.957"/><text fill="#000000" font-family="sans-serif" font-size="11" lengthAdjust="spacingAndGlyphs" textLength="58" x="26" y="274.958">__iteration()</text><rect fill="#F24D5C" height="6" style="stroke: #C82930; stroke-width: 1.0;" width="6" x="14" y="282.793"/><text fill="#000000" font-family="sans-serif" font-size="11" lengthAdjust="spacingAndGlyphs" textLength="104" x="26" y="288.7939">__curve_to_xcheck()</text><rect fill="#F24D5C" height="6" style="stroke: #C82930; stroke-width: 1.0;" width="6" x="14" y="296.6289"/><text fill="#000000" font-family="sans-serif" font-size="11" lengthAdjust="spacingAndGlyphs" textLength="63" x="26" y="302.6299">__get_area()</text><line style="stroke: #A80036; stroke-width: 1.0; stroke-dasharray: 1.0,2.0;" x1="7" x2="68.5" y1="242.7852" y2="242.7852"/><text fill="#000000" font-family="sans-serif" font-size="11" lengthAdjust="spacingAndGlyphs" textLength="41" x="68.5" y="246.7861">methods</text><line style="stroke: #A80036; stroke-width: 1.0; stroke-dasharray: 1.0,2.0;" x1="109.5" x2="171" y1="242.7852" y2="242.7852"/><!--
@startuml
class Bilin {
.. members ..
+ curve_ini: LineXY = LineXY()
+ xtarget: float = 0.0
+ dropstrength: float = 0.75
+ elastoplastic: bool = False
+ allowa010: bool = True
+ EPSILON: float = 0.000001
.. properties ..
+ x_max()
+ x_min()
+ y_max()
+ y_min()
+ y_max_index()
.. methods ..
+ calc()
- __iteration()
- __curve_to_xcheck()
- __get_area()
}

@enduml

PlantUML version 1.2019.06(Fri May 24 20:10:25 EEST 2019)
(GPL source distribution)
Java Runtime: Java(TM) SE Runtime Environment
JVM: Java HotSpot(TM) 64-Bit Server VM
Java Version: 1.8.0_281-b09
Operating System: Windows 10
OS Version: 10.0
Default Encoding: Cp1253
Language: en
Country: US
--></g></svg>