<?xml version="1.0" encoding="UTF-8" standalone="no"?><svg xmlns="http://www.w3.org/2000/svg" xmlns:xlink="http://www.w3.org/1999/xlink" contentScriptType="application/ecmascript" contentStyleType="text/css" height="195px" preserveAspectRatio="none" style="width:243px;height:195px;" version="1.1" viewBox="0 0 243 195" width="243px" zoomAndPan="magnify"><defs><filter height="300%" id="fe59uitdkblxh" width="300%" x="-1" y="-1"><feGaussianBlur result="blurOut" stdDeviation="2.0"/><feColorMatrix in="blurOut" result="blurOut2" type="matrix" values="0 0 0 0 0 0 0 0 0 0 0 0 0 0 0 0 0 0 .4 0"/><feOffset dx="4.0" dy="4.0" in="blurOut2" result="blurOut3"/><feBlend in="SourceGraphic" in2="blurOut3" mode="normal"/></filter></defs><g><!--class OutputTable--><rect fill="#FEFECE" filter="url(#fe59uitdkblxh)" height="176.5234" id="OutputTable" style="stroke: #A80036; stroke-width: 1.5;" width="226" x="6" y="8"/><ellipse cx="81.25" cy="24" fill="#ADD1B2" rx="11" ry="11" style="stroke: #A80036; stroke-width: 1.0;"/><path d="M84.0156,19.875 Q84.1719,19.6563 84.3594,19.5469 Q84.5469,19.4375 84.7656,19.4375 Q85.1406,19.4375 85.375,19.6953 Q85.6094,19.9531 85.6094,20.5625 L85.6094,22.0156 Q85.6094,22.625 85.375,22.8906 Q85.1406,23.1563 84.7656,23.1563 Q84.4219,23.1563 84.2188,22.9531 Q84.0156,22.7656 83.9063,22.25 Q83.8594,21.8906 83.6719,21.7031 Q83.3438,21.3281 82.7344,21.1094 Q82.125,20.8906 81.5,20.8906 Q80.7344,20.8906 80.1016,21.2188 Q79.4688,21.5469 78.9766,22.2969 Q78.4844,23.0469 78.4844,24.0781 L78.4844,25.1719 Q78.4844,26.4063 79.375,27.2266 Q80.2656,28.0469 81.8594,28.0469 Q82.7969,28.0469 83.4531,27.7969 Q83.8438,27.6406 84.2656,27.2031 Q84.5313,26.9375 84.6797,26.8594 Q84.8281,26.7813 85.0313,26.7813 Q85.3594,26.7813 85.6172,27.0391 Q85.875,27.2969 85.875,27.6406 Q85.875,27.9844 85.5313,28.3906 Q85.0313,28.9688 84.2344,29.2969 Q83.1563,29.75 81.8594,29.75 Q80.3438,29.75 79.1406,29.125 Q78.1563,28.625 77.4688,27.5547 Q76.7813,26.4844 76.7813,25.2031 L76.7813,24.0469 Q76.7813,22.7188 77.3984,21.5703 Q78.0156,20.4219 79.1094,19.8047 Q80.2031,19.1875 81.4375,19.1875 Q82.1719,19.1875 82.8203,19.3516 Q83.4688,19.5156 84.0156,19.875 Z "/><text fill="#000000" font-family="sans-serif" font-size="12" lengthAdjust="spacingAndGlyphs" textLength="67" x="101.75" y="28.9102">OutputTable</text><line style="stroke: #A80036; stroke-width: 1.5;" x1="7" x2="231" y1="40" y2="40"/><ellipse cx="17" cy="70.2539" fill="#84BE84" rx="3" ry="3" style="stroke: #038048; stroke-width: 1.0;"/><text fill="#000000" font-family="sans-serif" font-size="11" lengthAdjust="spacingAndGlyphs" textLength="200" x="26" y="73.2549">data: List[dict] = field(default_factory=list)</text><line style="stroke: #A80036; stroke-width: 1.0; stroke-dasharray: 1.0,2.0;" x1="7" x2="97" y1="54.918" y2="54.918"/><text fill="#000000" font-family="sans-serif" font-size="11" lengthAdjust="spacingAndGlyphs" textLength="44" x="97" y="58.9189">members</text><line style="stroke: #A80036; stroke-width: 1.0; stroke-dasharray: 1.0,2.0;" x1="141" x2="231" y1="54.918" y2="54.918"/><ellipse cx="17" cy="101.9258" fill="#84BE84" rx="3" ry="3" style="stroke: #038048; stroke-width: 1.0;"/><text fill="#000000" font-family="sans-serif" font-size="11" lengthAdjust="spacingAndGlyphs" textLength="74" x="26" y="104.9268">to_markdown()</text><ellipse cx="17" cy="115.7617" fill="#84BE84" rx="3" ry="3" style="stroke: #038048; stroke-width: 1.0;"/><text fill="#000000" font-family="sans-serif" font-size="11" lengthAdjust="spacingAndGlyphs" textLength="108" x="26" y="118.7627">to_panda_dataframe()</text><line style="stroke: #A80036; stroke-width: 1.0; stroke-dasharray: 1.0,2.0;" x1="7" x2="94.5" y1="86.5898" y2="86.5898"/><text fill="#000000" font-family="sans-serif" font-size="11" lengthAdjust="spacingAndGlyphs" textLength="49" x="94.5" y="90.5908">properties</text><line style="stroke: #A80036; stroke-width: 1.0; stroke-dasharray: 1.0,2.0;" x1="143.5" x2="231" y1="86.5898" y2="86.5898"/><ellipse cx="17" cy="147.4336" fill="#84BE84" rx="3" ry="3" style="stroke: #038048; stroke-width: 1.0;"/><text fill="#000000" font-family="sans-serif" font-size="11" lengthAdjust="spacingAndGlyphs" textLength="45" x="26" y="150.4346">retrieve()</text><ellipse cx="17" cy="161.2695" fill="#84BE84" rx="3" ry="3" style="stroke: #038048; stroke-width: 1.0;"/><text fill="#000000" font-family="sans-serif" font-size="11" lengthAdjust="spacingAndGlyphs" textLength="119" x="26" y="164.2705">retrieve_column_to_list()</text><ellipse cx="17" cy="175.1055" fill="#84BE84" rx="3" ry="3" style="stroke: #038048; stroke-width: 1.0;"/><text fill="#000000" font-family="sans-serif" font-size="11" lengthAdjust="spacingAndGlyphs" textLength="93" x="26" y="178.1064">to_quantity_value()</text><line style="stroke: #A80036; stroke-width: 1.0; stroke-dasharray: 1.0,2.0;" x1="7" x2="98.5" y1="132.0977" y2="132.0977"/><text fill="#000000" font-family="sans-serif" font-size="11" lengthAdjust="spacingAndGlyphs" textLength="41" x="98.5" y="136.0986">methods</text><line style="stroke: #A80036; stroke-width: 1.0; stroke-dasharray: 1.0,2.0;" x1="139.5" x2="231" y1="132.0977" y2="132.0977"/><!--
@startuml
class OutputTable {
.. members ..
+ data: List[dict] = field(default_factory=list)
.. properties ..
+ to_markdown()
+ to_panda_dataframe()
.. methods ..
+ retrieve()
+ retrieve_column_to_list()
+ to_quantity_value()
}

@enduml

PlantUML version 1.2019.06(Fri May 24 20:10:25 EEST 2019)
(GPL source distribution)
Java Runtime: Java(TM) SE Runtime Environment
JVM: Java HotSpot(TM) 64-Bit Server VM
Java Version: 1.8.0_281-b09
Operating System: Windows 10
OS Version: 10.0
Default Encoding: Cp1253
Language: en
Country: US
--></g></svg>