<?xml version="1.0" encoding="UTF-8" standalone="no"?><svg xmlns="http://www.w3.org/2000/svg" xmlns:xlink="http://www.w3.org/1999/xlink" contentScriptType="application/ecmascript" contentStyleType="text/css" height="118px" preserveAspectRatio="none" style="width:80px;height:118px;" version="1.1" viewBox="0 0 80 118" width="80px" zoomAndPan="magnify"><defs><filter height="300%" id="f1xn5zgn4kls0m" width="300%" x="-1" y="-1"><feGaussianBlur result="blurOut" stdDeviation="2.0"/><feColorMatrix in="blurOut" result="blurOut2" type="matrix" values="0 0 0 0 0 0 0 0 0 0 0 0 0 0 0 0 0 0 .4 0"/><feOffset dx="4.0" dy="4.0" in="blurOut2" result="blurOut3"/><feBlend in="SourceGraphic" in2="blurOut3" mode="normal"/></filter></defs><g><!--class ratios--><rect fill="#FEFECE" filter="url(#f1xn5zgn4kls0m)" height="99.3438" id="ratios" style="stroke: #A80036; stroke-width: 1.5;" width="63" x="6" y="8"/><ellipse cx="21" cy="24" fill="#FF7700" rx="11" ry="11" style="stroke: #A80036; stroke-width: 1.0;"/><path d="M18.9375,22.2188 L18.9375,27.2969 L19.5625,27.2969 Q20.1719,27.2969 20.4297,27.5313 Q20.6875,27.7656 20.6875,28.1563 Q20.6875,28.5313 20.4297,28.7656 Q20.1719,29 19.5625,29 L17.3281,29 Q16.7031,29 16.4453,28.7656 Q16.1875,28.5313 16.1875,28.1406 Q16.1875,27.7656 16.4453,27.5313 Q16.7031,27.2969 17.2344,27.2969 L17.2344,20.6406 Q16.7969,20.5938 16.5625,20.3672 Q16.3281,20.1406 16.3281,19.7813 Q16.3281,19.4063 16.5938,19.1719 Q16.8594,18.9375 17.4688,18.9375 L19.3438,18.9375 L21.6563,24.0625 L23.9219,18.9375 L25.8125,18.9375 Q26.4219,18.9375 26.6875,19.1719 Q26.9531,19.4063 26.9531,19.7813 Q26.9531,20.1406 26.7188,20.3672 Q26.4844,20.5938 26.0469,20.6406 L26.0469,27.2969 Q26.5781,27.2969 26.8359,27.5391 Q27.0938,27.7813 27.0938,28.1563 Q27.0938,28.5313 26.8359,28.7656 Q26.5781,29 25.9688,29 L23.7188,29 Q23.1094,29 22.8516,28.7656 Q22.5938,28.5313 22.5938,28.1406 Q22.5938,27.7656 22.8516,27.5313 Q23.1094,27.2969 23.7188,27.2969 L24.3438,27.2969 L24.3438,22.2188 L22.3906,26.6094 L20.9219,26.6094 L18.9375,22.2188 Z "/><text fill="#000000" font-family="sans-serif" font-size="12" lengthAdjust="spacingAndGlyphs" textLength="31" x="35" y="28.9102">ratios</text><line style="stroke: #A80036; stroke-width: 1.5;" x1="7" x2="68" y1="40" y2="40"/><text fill="#000000" font-family="sans-serif" font-size="11" lengthAdjust="spacingAndGlyphs" textLength="14" x="12" y="73.2549">ρ()</text><text fill="#000000" font-family="sans-serif" font-size="11" lengthAdjust="spacingAndGlyphs" textLength="24" x="12" y="87.0908">ρw()</text><text fill="#000000" font-family="sans-serif" font-size="11" lengthAdjust="spacingAndGlyphs" textLength="16" x="12" y="100.9268">ω()</text><line style="stroke: #A80036; stroke-width: 1.0; stroke-dasharray: 1.0,2.0;" x1="7" x2="15" y1="54.918" y2="54.918"/><text fill="#000000" font-family="sans-serif" font-size="11" lengthAdjust="spacingAndGlyphs" textLength="45" x="15" y="58.9189">functions</text><line style="stroke: #A80036; stroke-width: 1.0; stroke-dasharray: 1.0,2.0;" x1="60" x2="68" y1="54.918" y2="54.918"/><!--
@startuml
class ratios <<(M,#FF7700)>> {
.. functions ..
ρ()
ρw()
ω()
}

@enduml

PlantUML version 1.2019.06(Fri May 24 20:10:25 EEST 2019)
(GPL source distribution)
Java Runtime: Java(TM) SE Runtime Environment
JVM: Java HotSpot(TM) 64-Bit Server VM
Java Version: 1.8.0_281-b09
Operating System: Windows 10
OS Version: 10.0
Default Encoding: Cp1253
Language: en
Country: US
--></g></svg>